<?xml version="1.0" encoding="UTF-8" standalone="no"?>
<svg
   xmlns:dc="http://purl.org/dc/elements/1.1/"
   xmlns:cc="http://creativecommons.org/ns#"
   xmlns:rdf="http://www.w3.org/1999/02/22-rdf-syntax-ns#"
   xmlns:svg="http://www.w3.org/2000/svg"
   xmlns="http://www.w3.org/2000/svg"
   xmlns:sodipodi="http://sodipodi.sourceforge.net/DTD/sodipodi-0.dtd"
   xmlns:inkscape="http://www.inkscape.org/namespaces/inkscape"
   sodipodi:docname="logoicon.svg"
   inkscape:version="1.0.2-2 (e86c870879, 2021-01-15)"
   id="svg917"
   version="1.1"
   viewBox="0 0 200 200"
   height="200mm"
   width="200mm">
  <defs
     id="defs911" />
  <sodipodi:namedview
     inkscape:window-maximized="0"
     inkscape:window-y="0"
     inkscape:window-x="26"
     inkscape:window-height="728"
     inkscape:window-width="1274"
     showgrid="false"
     inkscape:document-rotation="0"
     inkscape:current-layer="layer1"
     inkscape:document-units="mm"
     inkscape:cy="560.80636"
     inkscape:cx="400.74259"
     inkscape:zoom="0.35"
     inkscape:pageshadow="2"
     inkscape:pageopacity="0.0"
     borderopacity="1.0"
     bordercolor="#666666"
     pagecolor="#ffffff"
     id="base" />
  <metadata
     id="metadata914">
    <rdf:RDF>
      <cc:Work
         rdf:about="">
        <dc:format>image/svg+xml</dc:format>
        <dc:type
           rdf:resource="http://purl.org/dc/dcmitype/StillImage" />
        <dc:title />
      </cc:Work>
    </rdf:RDF>
  </metadata>
  <g
     id="layer1"
     inkscape:groupmode="layer"
     inkscape:label="Layer 1">
    <path
       d="m 100.00001,8.759245 c -49.088278,0 -88.889001,40.854384 -88.889001,91.246175 0,50.39182 39.800723,91.23533 88.889001,91.23533 49.09912,0 88.88898,-40.84351 88.88898,-91.23533 0,-50.391791 -39.78986,-91.246175 -88.88898,-91.246175 M 99.109211,158.09884 c -1.48816,0 -2.99818,-0.0432 -4.54058,-0.12934 C 60.123205,156.09028 36.562136,115.05114 67.107879,88.883015 85.791601,72.871499 124.87539,78.845907 139.52908,55.904041 c 0.43448,-0.673418 0.90159,-0.988416 1.35793,-0.988416 0.54315,0 1.0537,0.445249 1.44475,1.270772 8.57063,18.108008 17.02179,50.522143 5.12719,72.747123 -10.91697,20.3783 -26.9611,29.16617 -48.349609,29.16617"
       style="fill:#076392;fill-opacity:1;fill-rule:nonzero;stroke:none;stroke-width:10.8627"
       id="path48" />
  </g>
</svg>
