<?xml version="1.0" encoding="UTF-8" standalone="no"?>
<svg
   xmlns:dc="http://purl.org/dc/elements/1.1/"
   xmlns:cc="http://creativecommons.org/ns#"
   xmlns:rdf="http://www.w3.org/1999/02/22-rdf-syntax-ns#"
   xmlns:svg="http://www.w3.org/2000/svg"
   xmlns="http://www.w3.org/2000/svg"
   xmlns:sodipodi="http://sodipodi.sourceforge.net/DTD/sodipodi-0.dtd"
   xmlns:inkscape="http://www.inkscape.org/namespaces/inkscape"
   width="125mm"
   height="125mm"
   viewBox="0 0 125 125"
   version="1.1"
   id="svg8"
   inkscape:version="1.0.2-2 (e86c870879, 2021-01-15)"
   sodipodi:docname="location.svg">
  <defs
     id="defs2" />
  <sodipodi:namedview
     id="base"
     pagecolor="#ffffff"
     bordercolor="#666666"
     borderopacity="1.0"
     inkscape:pageopacity="0.0"
     inkscape:pageshadow="2"
     inkscape:zoom="0.7"
     inkscape:cx="332.39947"
     inkscape:cy="476.06722"
     inkscape:document-units="mm"
     inkscape:current-layer="layer1"
     inkscape:document-rotation="0"
     showgrid="false"
     inkscape:window-width="1758"
     inkscape:window-height="1030"
     inkscape:window-x="96"
     inkscape:window-y="0"
     inkscape:window-maximized="0" />
  <metadata
     id="metadata5">
    <rdf:RDF>
      <cc:Work
         rdf:about="">
        <dc:format>image/svg+xml</dc:format>
        <dc:type
           rdf:resource="http://purl.org/dc/dcmitype/StillImage" />
        <dc:title></dc:title>
      </cc:Work>
    </rdf:RDF>
  </metadata>
  <g
     inkscape:label="Layer 1"
     inkscape:groupmode="layer"
     id="layer1">
    <path
       style="fill:#d40000;stroke:none;stroke-width:0.217839"
       d="m 92.709499,119.8759 c -12.6024,-0.37072 -25.22185,0.27577 -37.82874,-0.19289 -6.63067,-0.24643 -13.27503,0.0704 -19.62364,-1.97761 -9.085512,-2.93099 -17.322225,-11.6005 -13.033635,-20.10842 1.602047,-3.17845 4.470165,-5.85975 8.305065,-7.13245 7.92511,-2.63034 19.32855,-0.85885 22.07541,-9.92797 0.35913,-1.18539 0.50429,-2.39169 0.31704,-3.6128 -0.82798,-5.39451 -6.35405,-9.31337 -12.46244,-10.14833 -6.65948,-0.91024 -14.407767,-0.0275 -16.340326,-7.11279 -0.498884,-1.82948 -1.043377,-4.80523 -0.306881,-6.62345 1.133205,-2.79813 4.755777,-5.74315 6.717437,-8.22914 7.62366,-9.661614 19.31602,-22.991019 10.08488,-34.522254 -1.2207,-1.524801 -2.67709,-2.914922 -4.41083,-4.034488 -2.77545,-1.792346 -6.00412,-3.03254 -9.457172,-3.50461 C 22.864923,2.218219 18.801627,2.515883 15.160621,3.83956 12.421115,4.835487 9.8908354,6.221798 7.8525854,8.080179 -4.3816986,19.233677 7.0990754,33.640297 15.0819,43.8065 c 1.769651,2.25398 4.395225,4.55793 5.683745,7.02486 0.616863,1.18118 0.06912,3.30972 0.06912,4.61635 0,3.56402 0.439067,7.52846 3.587599,10.20133 6.935165,5.88743 19.261645,0.41165 24.485315,8.86619 0.62277,1.00777 1.08453,2.06954 1.20322,3.21138 0.52319,5.04044 -5.68732,7.87208 -10.59821,8.71083 -3.30361,0.56421 -6.73232,0.69608 -9.93004,1.66552 -5.495552,1.6661 -9.632843,5.87299 -10.872211,10.69827 -2.342294,9.1187 4.852726,17.66578 14.655091,20.99436 6.40155,2.17389 13.09488,2.15041 19.86008,2.29112 7.00399,0.14543 14.02098,0.19769 21.04222,0.19769 4.23636,0 8.54669,-0.42811 12.76719,-0.1828 2.19147,0.12751 6.00889,0.84219 8.03839,-0.0227 1.28167,-0.54653 2.15363,-1.85899 2.98539,-2.80432 1.958581,-2.22689 3.839391,-4.52644 5.681411,-6.82417 5.41494,-6.75532 10.38207,-13.71677 14.56453,-21.07465 2.0905,-3.67741 4.45147,-8.26205 4.17274,-12.44408 -0.99491,-14.92344 -17.8412,-26.23469 -35.206031,-21.67154 -3.66274,0.96242 -6.98269,2.51172 -9.93003,4.59529 -1.88034,1.32931 -3.42871,2.93218 -4.82552,4.63221 -9.87899,12.02336 -1.06157,25.25564 6.62241,36.12795 2.16048,3.05662 4.39259,6.11906 6.81482,9.03197 2.25719,2.71441 4.68864,5.41076 6.75622,8.22915 M 21.780635,13.158185 c 3.008104,-0.377335 5.910044,0.481104 7.566944,2.749537 2.48556,3.402652 -0.0798,8.307219 -4.729783,8.966554 C 15.632536,26.14859 12.747374,14.291199 21.780635,13.158185 M 93.418789,69.5577 c 1.85738,-0.22723 3.94268,-0.11387 5.67429,0.51765 8.703931,3.17362 7.102121,14.66171 -2.36427,15.82021 -12.35014,1.51135 -15.7857,-14.81106 -3.31002,-16.33786 z"
       id="path851" />
  </g>
</svg>
