<?xml version="1.0" encoding="UTF-8" standalone="no"?>
<svg
   xmlns:dc="http://purl.org/dc/elements/1.1/"
   xmlns:cc="http://creativecommons.org/ns#"
   xmlns:rdf="http://www.w3.org/1999/02/22-rdf-syntax-ns#"
   xmlns:svg="http://www.w3.org/2000/svg"
   xmlns="http://www.w3.org/2000/svg"
   xmlns:sodipodi="http://sodipodi.sourceforge.net/DTD/sodipodi-0.dtd"
   xmlns:inkscape="http://www.inkscape.org/namespaces/inkscape"
   viewBox="0 0 88 88"
   version="1.1"
   id="svg11"
   sodipodi:docname="agrodadoscube.svg"
   inkscape:version="1.0.2-2 (e86c870879, 2021-01-15)">
  <metadata
     id="metadata17">
    <rdf:RDF>
      <cc:Work
         rdf:about="">
        <dc:format>image/svg+xml</dc:format>
        <dc:type
           rdf:resource="http://purl.org/dc/dcmitype/StillImage" />
        <dc:title></dc:title>
      </cc:Work>
    </rdf:RDF>
  </metadata>
  <defs
     id="defs15" />
  <sodipodi:namedview
     pagecolor="#ffffff"
     bordercolor="#666666"
     borderopacity="1"
     objecttolerance="10"
     gridtolerance="10"
     guidetolerance="10"
     inkscape:pageopacity="0"
     inkscape:pageshadow="2"
     inkscape:window-width="2560"
     inkscape:window-height="1017"
     id="namedview13"
     showgrid="false"
     inkscape:zoom="4.8295455"
     inkscape:cx="80.479039"
     inkscape:cy="63.175064"
     inkscape:window-x="1912"
     inkscape:window-y="-8"
     inkscape:window-maximized="1"
     inkscape:current-layer="svg11" />
  <g
     id="Cube">
    <path
       d="M43,42.6036l-38-20V66a1,1,0,0,0,.5342.8848L43,86.6036Z"
       id="path4"
       style="fill:#03344c;fill-opacity:1;opacity:0.90883978" />
    <path
       d="M44,40.87l38-20L44.4658,1.1152a1.001,1.001,0,0,0-.9316,0L6,20.87Z"
       id="path6"
       style="fill:#076392;fill-opacity:1;opacity:0.88121547" />
    <path
       d="M45,42.6036v44L82.4658,66.8848A1.0008,1.0008,0,0,0,83,66V22.6037Z"
       id="path8"
       style="fill:#0876ad;fill-opacity:1;opacity:0.69060773" />
  </g>
  <path
     d="M 23.625771,38.302873 C 15.641084,37.075561 9.3431689,43.565888 9.5603328,52.798775 9.7774972,62.031671 16.427492,70.510212 24.412177,71.737521 32.398633,72.965104 38.69483,66.476497 38.477664,57.2436 38.260499,48.010713 31.612228,39.530456 23.625771,38.302873 m 0.498687,27.340049 c -0.242067,-0.03721 -0.48787,-0.08291 -0.739131,-0.13728 -5.610982,-1.205523 -9.620282,-9.313882 -4.764488,-13.344751 2.970086,-2.466533 9.353199,-0.394709 11.637893,-4.231794 0.06779,-0.112515 0.142395,-0.158561 0.216636,-0.147094 0.08835,0.01358 0.173313,0.10792 0.240478,0.268956 1.47213,3.532068 2.986489,9.68235 1.147492,13.457071 -1.687928,3.460804 -4.259794,4.669796 -7.738843,4.135039"
     style="fill:#ffffff;fill-opacity:1;fill-rule:nonzero;stroke:none;stroke-width:1.8719"
     id="path48-0" />
</svg>
